HIERARCHY
ROOT hip
{
  OFFSET 0 0 0
  CHANNELS 6 Xposition Yposition Zposition Zrotation Yrotation Xrotation
  JOINT abdomen
  {
    OFFSET 0 20.6881 -0.73152
    CHANNELS 3 Zrotation Xrotation Yrotation
    JOINT chest
    {
      OFFSET 0 11.7043 -0.48768
      CHANNELS 3 Zrotation Xrotation Yrotation
      JOINT neck
      {
        OFFSET 0 22.1894 -2.19456
        CHANNELS 3 Zrotation Xrotation Yrotation
        JOINT head
        {
          OFFSET -0.24384 7.07133 1.2192
          CHANNELS 3 Zrotation Xrotation Yrotation
          JOINT leftEye
          {
            OFFSET 4.14528 8.04674 8.04672
            CHANNELS 3 Zrotation Xrotation Yrotation
            End Site
            {
              OFFSET 1 0 0
            }
          }
          JOINT rightEye
          {
            OFFSET -3.6576 8.04674 8.04672
            CHANNELS 3 Zrotation Xrotation Yrotation
            End Site
            {
              OFFSET 1 0 0
            }
          }
        }
      }
      JOINT rCollar
      {
        OFFSET -2.68224 19.2634 -4.8768
        CHANNELS 3 Zrotation Xrotation Yrotation
        JOINT rShldr
        {
          OFFSET -8.77824 -1.95073 1.46304
          CHANNELS 3 Zrotation Xrotation Yrotation
          JOINT rForeArm
          {
            OFFSET -28.1742 -1.7115 0.48768
            CHANNELS 3 Zrotation Xrotation Yrotation
            JOINT rHand
            {
              OFFSET -22.5879 0.773209 7.07136
              CHANNELS 3 Zrotation Xrotation Yrotation
              JOINT rThumb1
              {
                OFFSET -1.2192 -0.487915 3.41376
                CHANNELS 3 Zrotation Xrotation Yrotation
                JOINT rThumb2
                {
                  OFFSET -3.37035 -0.52449 3.41376
                  CHANNELS 3 Zrotation Xrotation Yrotation
                  End Site
                  {
                    OFFSET -1.78271 -1.18214 1.43049
                  }
                }
              }
              JOINT rIndex1
              {
                OFFSET -7.75947 0.938293 5.60832
                CHANNELS 3 Zrotation Xrotation Yrotation
                JOINT rIndex2
                {
                  OFFSET -2.54057 -0.884171 1.56538
                  CHANNELS 3 Zrotation Xrotation Yrotation
                  End Site
                  {
                    OFFSET -1.62519 -0.234802 1.16502
                  }
                }
              }
              JOINT rMid1
              {
                OFFSET -8.24714 1.18213 3.41376
                CHANNELS 3 Zrotation Xrotation Yrotation
                JOINT rMid2
                {
                  OFFSET -3.10165 -0.590103 1.0647
                  CHANNELS 3 Zrotation Xrotation Yrotation
                  End Site
                  {
                    OFFSET -2.48547 -0.328903 0.83742
                  }
                }
              }
              JOINT rRing1
              {
                OFFSET -8.82822 0.546677 1.51678
                CHANNELS 3 Zrotation Xrotation Yrotation
                JOINT rRing2
                {
                  OFFSET -2.60934 -0.819778 -0.0198488
                  CHANNELS 3 Zrotation Xrotation Yrotation
                  End Site
                  {
                    OFFSET -2.33842 -0.294052 0.168128
                  }
                }
              }
              JOINT rPinky1
              {
                OFFSET -8.27202 -0.0477905 -0.4584
                CHANNELS 3 Zrotation Xrotation Yrotation
                JOINT rPinky2
                {
                  OFFSET -1.82734 -0.647385 -0.700984
                  CHANNELS 3 Zrotation Xrotation Yrotation
                  End Site
                  {
                    OFFSET -1.69225 -0.51767 -0.607171
                  }
                }
              }
            }
          }
        }
      }
      JOINT lCollar
      {
        OFFSET 2.68224 19.2634 -4.8768
        CHANNELS 3 Zrotation Xrotation Yrotation
        JOINT lShldr
        {
          OFFSET 8.77824 -1.95073 1.46304
          CHANNELS 3 Zrotation Xrotation Yrotation
          JOINT lForeArm
          {
            OFFSET 28.1742 -1.7115 0.48768
            CHANNELS 3 Zrotation Xrotation Yrotation
            JOINT lHand
            {
              OFFSET 22.5879 0.773209 7.07136
              CHANNELS 3 Zrotation Xrotation Yrotation
              JOINT lThumb1
              {
                OFFSET 1.2192 -0.487915 3.41376
                CHANNELS 3 Zrotation Xrotation Yrotation
                JOINT lThumb2
                {
                  OFFSET 3.37035 -0.52449 3.41376
                  CHANNELS 3 Zrotation Xrotation Yrotation
                  End Site
                  {
                    OFFSET 1.78271 -1.18214 1.43049
                  }
                }
              }
              JOINT lIndex1
              {
                OFFSET 7.75947 0.938293 5.60832
                CHANNELS 3 Zrotation Xrotation Yrotation
                JOINT lIndex2
                {
                  OFFSET 2.54057 -0.884171 1.56538
                  CHANNELS 3 Zrotation Xrotation Yrotation
                  End Site
                  {
                    OFFSET 1.62519 -0.234802 1.16502
                  }
                }
              }
              JOINT lMid1
              {
                OFFSET 8.24714 1.18213 3.41376
                CHANNELS 3 Zrotation Xrotation Yrotation
                JOINT lMid2
                {
                  OFFSET 3.10165 -0.590103 1.0647
                  CHANNELS 3 Zrotation Xrotation Yrotation
                  End Site
                  {
                    OFFSET 2.48547 -0.328903 0.83742
                  }
                }
              }
              JOINT lRing1
              {
                OFFSET 8.82822 0.546677 1.51678
                CHANNELS 3 Zrotation Xrotation Yrotation
                JOINT lRing2
                {
                  OFFSET 2.60934 -0.819778 -0.0198488
                  CHANNELS 3 Zrotation Xrotation Yrotation
                  End Site
                  {
                    OFFSET 2.33842 -0.294052 0.168128
                  }
                }
              }
              JOINT lPinky1
              {
                OFFSET 8.27202 -0.0477905 -0.4584
                CHANNELS 3 Zrotation Xrotation Yrotation
                JOINT lPinky2
                {
                  OFFSET 1.82734 -0.647385 -0.700984
                  CHANNELS 3 Zrotation Xrotation Yrotation
                  End Site
                  {
                    OFFSET 1.69225 -0.51767 -0.607171
                  }
                }
              }
            }
          }
        }
      }
    }
  }
  JOINT rButtock
  {
    OFFSET -8.77824 4.35084 1.2192
    CHANNELS 3 Zrotation Xrotation Yrotation
    JOINT rThigh
    {
      OFFSET 0 -1.70687 -2.19456
      CHANNELS 3 Zrotation Xrotation Yrotation
      JOINT rShin
      {
        OFFSET 0 -36.8199 0.73152
        CHANNELS 3 Zrotation Xrotation Yrotation
        JOINT rFoot
        {
          OFFSET 0.73152 -45.1104 -5.12064
          CHANNELS 3 Zrotation Xrotation Yrotation
          End Site
          {
            OFFSET -1.1221 -3.69964 12.103
          }
        }
      }
    }
  }
  JOINT lButtock
  {
    OFFSET 8.77824 4.35084 1.2192
    CHANNELS 3 Zrotation Xrotation Yrotation
    JOINT lThigh
    {
      OFFSET 0 -1.70687 -2.19456
      CHANNELS 3 Zrotation Xrotation Yrotation
      JOINT lShin
      {
        OFFSET 0 -36.8199 0.73152
        CHANNELS 3 Zrotation Xrotation Yrotation
        JOINT lFoot
        {
          OFFSET -0.73152 -45.1104 -5.12064
          CHANNELS 3 Zrotation Xrotation Yrotation
          End Site
          {
            OFFSET 1.1221 -3.69964 12.103
          }
        }
      }
    }
  }
}
MOTION
Frames:	4
Frame Time:	0.03333
-0.01044000000850736 64.4301033464574 0.1079999983629796 -17.835988998413086 -28.416400909423828 12.147011756896973 15.580001831054688 8.818578720092773 -1.878210186958313 6.067149639129639 -7.824271202087402 0.02160491980612278 2.0365898609161377 10.914101600646973 8.423850059509277 0.38457196950912476 -20.150300979614258 16.48889923095703 -0.0 0.0 -0.0 -0.0 0.0 -0.0 8.079649416962292e-14 -5.387029933462753e-14 5.280709680297035e-13 103.95899963378906 47.49709701538086 -55.40489959716797 -26.724699020385742 -44.71439743041992 92.87820434570312 -9.222049713134766 -61.96190643310547 -15.301299095153809 -1.1946499345327766e-09 2.6293398569521287e-09 4.977470102751624e-10 -2.077439775760581e-09 4.433100109224597e-09 8.034780063503888e-10 -1.1946600375623007e-09 2.6293500710039552e-09 4.97738017468663e-10 7.730909824371338 5.474879741668701 0.4173140823841095 -1.1946600375623007e-09 2.6293398569521287e-09 4.977540046802176e-10 2.9055399894714355 0.9651829600334167 0.10290199518203735 -1.1946499345327766e-09 2.6293500710039552e-09 4.977499523661777e-10 10.27859878540039 0.73180091381073 0.025912316516041756 -1.1946600375623007e-09 2.6293500710039552e-09 4.977570022823841e-10 2.221669912338257 -0.733487069606781 -0.208919957280159 8.07212911964339e-14 -5.387139370119538e-14 5.278729385028991e-13 7.136129856109619 -13.96150016784668 -93.17780303955078 28.310396194458008 -38.23929977416992 -80.82099914550781 0.15372899174690247 -11.106701850891113 1.5809999704360962 2.7474400532412346e-10 3.16287973589624e-09 3.963359862524385e-09 4.4933598508656303e-10 5.417859494372124e-09 6.843989819316221e-09 2.7473898156493703e-10 3.1628699659336235e-09 3.9633696324870016e-09 -7.730909824371338 5.474879741668701 -0.4173140823841095 2.747429783678257e-10 3.1628699659336235e-09 3.9633696324870016e-09 -2.9055399894714355 0.9651829600334167 -0.10290199518203735 2.747330141161797e-10 3.1628699659336235e-09 3.9633696324870016e-09 -10.27859878540039 0.73180091381073 -0.025912316516041756 2.747490013277343e-10 3.1628699659336235e-09 3.9633696324870016e-09 -2.221669912338257 -0.733487069606781 0.208919957280159 -2.0321699480147914e-16 0.0 -3.8825099822884138e-19 -10.249199867248535 4.30711030960083 -9.336810111999512 -0.10008798539638519 37.07139587402344 1.7270400524139404 -11.23499870300293 -14.651398658752441 -27.46310043334961 2.0321699480147914e-16 0.0 3.8825099822884138e-19 83.21060180664062 -51.06190490722656 71.07820129394531 5.279520034790039 80.05351257324219 -5.470799922943115 -1.2633600234985352 -4.581289291381836 -8.14657974243164
-0.01841000034163913 64.38910172086982 0.20100000084421868 -17.785009384155273 -28.45430564880371 12.089991569519043 15.448799133300781 8.807580947875977 -1.7923898696899414 6.056910037994385 -7.809390544891357 0.04284399375319481 2.0636799335479736 10.745701789855957 8.393778800964355 0.48879092931747437 -20.067596435546875 16.443302154541016 -0.0 0.0 -0.0 -0.0 0.0 -0.0 1.3073598464658637e-13 9.931699831034618e-14 4.783780251267633e-13 103.92899322509766 47.39619445800781 -55.33089828491211 -26.729995727539062 -44.70150375366211 92.85189819335938 -9.193879127502441 -61.91340255737305 -15.269399642944336 -1.426269991000595e-09 2.473249827161794e-09 3.255299640958498e-10 -2.46799003456033e-09 4.1151695384655795e-09 4.931219876880277e-10 -1.426269991000595e-09 2.473249827161794e-09 3.2551800144275944e-10 7.730909824371338 5.474879741668701 0.4173140823841095 -1.426269991000595e-09 2.473249827161794e-09 3.2552899265070323e-10 2.9055399894714355 0.9651829600334167 0.10290199518203735 -1.426269991000595e-09 2.473249827161794e-09 3.2552899265070323e-10 10.27859878540039 0.73180091381073 0.025912316516041756 -1.426269991000595e-09 2.473249827161794e-09 3.2553598705575837e-10 2.221669912338257 -0.733487069606781 -0.208919957280159 1.306529889702826e-13 9.931829257668959e-14 4.781489874178257e-13 6.825469970703125 -16.02359962463379 -92.06379699707031 28.333698272705078 -37.98960494995117 -80.38800048828125 0.16160500049591064 -11.363701820373535 1.6186797618865967 -2.1502698233089035e-10 8.083089753085915e-10 2.772890139723927e-09 -3.8918199218862526e-10 1.3615798488686437e-09 4.7827901639152515e-09 -2.1503999969585408e-10 8.082949864984812e-10 2.7729099016937653e-09 -7.730909824371338 5.474879741668701 -0.4173140823841095 -2.1502698233089035e-10 8.083039793049807e-10 2.772890139723927e-09 -2.9055399894714355 0.9651829600334167 -0.10290199518203735 -2.1503497593666765e-10 8.083039793049807e-10 2.772890139723927e-09 -10.27859878540039 0.73180091381073 -0.025912316516041756 -2.1502200020506734e-10 8.08305977706425e-10 2.772890139723927e-09 -2.221669912338257 -0.733487069606781 0.208919957280159 -2.0321699480147914e-16 0.0 -3.8825099822884138e-19 -10.321300506591797 4.364629745483398 -9.28596019744873 -0.09969650208950043 37.04610824584961 1.7264999151229858 -11.25 -14.661099433898926 -27.494998931884766 2.0321699480147914e-16 0.0 3.8825099822884138e-19 83.22439575195312 -50.965309143066406 71.152099609375 5.365899085998535 80.18954467773438 -5.557540416717529 -1.301919937133789 -4.818200588226318 -8.152338981628418
-0.031190000481430377 64.34460303842718 0.3089999992071983 -17.749000549316406 -28.472002029418945 12.119990348815918 15.309897422790527 8.791021347045898 -1.7050801515579224 6.048170566558838 -7.806370735168457 0.06493840366601944 2.084859848022461 10.581501007080078 8.362910270690918 0.6065539717674255 -19.98499870300293 16.398799896240234 -0.0 0.0 -0.0 -0.0 0.0 -0.0 1.5569599917057003e-13 2.6756198710613244e-13 3.022519842917071e-13 103.88899993896484 47.286895751953125 -55.24799728393555 -26.73929786682129 -44.67890548706055 92.80609893798828 -9.186830520629883 -61.90120315551758 -15.261401176452637 -1.0207599210332319e-09 1.3349998884137904e-09 5.749809656174776e-11 -1.758630019388363e-09 2.175639890467096e-09 4.927869917681349e-11 -1.0207599210332319e-09 1.3349998884137904e-09 5.748530124138895e-11 7.730909824371338 5.474879741668701 0.4173140823841095 -1.0207599210332319e-09 1.3349998884137904e-09 5.7491698901568355e-11 2.9055399894714355 0.9651829600334167 0.10290199518203735 -1.0207599210332319e-09 1.3349998884137904e-09 5.749569917390396e-11 10.27859878540039 0.73180091381073 0.025912316516041756 -1.0207599210332319e-09 1.3349998884137904e-09 5.7501198247322804e-11 2.221669912338257 -0.733487069606781 -0.208919957280159 1.5561099772024717e-13 2.6756599865417063e-13 3.02003973044751e-13 6.487509727478027 -17.974700927734375 -91.12910461425781 28.35650062561035 -37.7078971862793 -79.904296875 0.18076099455356598 -12.02700138092041 1.715809941291809 -7.789509592903698e-10 -1.8895398579132916e-09 6.873909774718356e-10 -1.3487798655731353e-09 -3.2765599122797084e-09 1.1773499952738575e-09 -7.7896900041452e-10 -1.8895600639723398e-09 6.874160130010409e-10 -7.730909824371338 5.474879741668701 -0.4173140823841095 -7.789499600896477e-10 -1.8895398579132916e-09 6.873879798696692e-10 -2.9055399894714355 0.9651829600334167 -0.10290199518203735 -7.789569544947028e-10 -1.8895398579132916e-09 6.873889235592401e-10 -10.27859878540039 0.73180091381073 -0.025912316516041756 -7.789470179986324e-10 -1.8895398579132916e-09 6.873849822675027e-10 -2.221669912338257 -0.733487069606781 0.208919957280159 -2.0321699480147914e-16 0.0 -3.8825099822884138e-19 -10.385300636291504 4.4334397315979 -9.242111206054688 -0.09897200763225555 37.00519561767578 1.7261801958084106 -11.269699096679688 -14.670498847961426 -27.539400100708008 2.0321699480147914e-16 0.0 3.8825099822884138e-19 83.243896484375 -50.88670349121094 71.23919677734375 5.453670501708984 80.32421112060547 -5.6461310386657715 -1.3423798084259033 -5.036910057067871 -8.177589416503906
-0.03341000039219629 64.30170262025034 0.4160000018467925 -17.71400260925293 -28.436498641967773 12.134003639221191 15.165398597717285 8.747109413146973 -1.5807899236679077 6.043519973754883 -7.811660289764404 0.0970899760723114 2.1003901958465576 10.454100608825684 8.345272064208984 0.6830300688743591 -19.95840072631836 16.375402450561523 -0.0 0.0 -0.0 -0.0 0.0 -0.0 2.954679957731937e-13 5.275250180257485e-13 7.381840364667491e-13 103.85399627685547 47.09739685058594 -55.18779754638672 -26.742197036743164 -44.671897888183594 92.7919921875 -9.20348072052002 -61.92989730834961 -15.280298233032227 -1.7685298780989456e-09 3.5177800672414605e-09 5.975139827363307e-10 -3.0713100951373917e-09 5.893030063930382e-09 9.444309778672277e-10 -1.7685298780989456e-09 3.517790059248682e-09 5.975059891305534e-10 7.730909824371338 5.474879741668701 0.4173140823841095 -1.7685298780989456e-09 3.5177800672414605e-09 5.975159256266238e-10 2.9055399894714355 0.9651829600334167 0.10290199518203735 -1.7685298780989456e-09 3.5177800672414605e-09 5.975159256266238e-10 10.27859878540039 0.73180091381073 0.025912316516041756 -1.7685298780989456e-09 3.5177800672414605e-09 5.975209771413859e-10 2.221669912338257 -0.733487069606781 -0.208919957280159 2.953889574348195e-13 5.275239880336846e-13 7.380189666859882e-13 6.032099723815918 -19.721099853515625 -90.3635025024414 28.37689781188965 -37.42109680175781 -79.41210174560547 0.1789650171995163 -11.961698532104492 1.706260085105896 -1.403479887862602e-09 -1.883730060825428e-09 2.4710899992896884e-09 -2.436499890734467e-09 -3.286320104933793e-09 4.246179852174237e-09 -1.4034998718770453e-09 -1.8837498227952665e-09 2.4711199753113533e-09 -7.730909824371338 5.474879741668701 -0.4173140823841095 -1.403479887862602e-09 -1.883739830788045e-09 2.471099769252305e-09 -2.9055399894714355 0.9651829600334167 -0.10290199518203735 -1.4034998718770453e-09 -1.883739830788045e-09 2.4710899992896884e-09 -10.27859878540039 0.73180091381073 -0.025912316516041756 -1.403479887862602e-09 -1.883739830788045e-09 2.4710899992896884e-09 -2.221669912338257 -0.733487069606781 0.208919957280159 -2.0321699480147914e-16 0.0 -3.8825099822884138e-19 -10.44250202178955 4.527889728546143 -9.221099853515625 -0.09744410216808319 36.92629623413086 1.7264199256896973 -11.287399291992188 -14.700601577758789 -27.56089973449707 2.0321699480147914e-16 0.0 3.8825099822884138e-19 83.28729248046875 -50.84980010986328 71.36609649658203 5.545229911804199 80.45993041992188 -5.739540100097656 -1.3765097856521606 -5.197520732879639 -8.209738731384277
